<mxfile host="Electron" modified="2023-06-14T12:32:42.651Z" agent="Mozilla/5.0 (Windows NT 10.0; Win64; x64) AppleWebKit/537.36 (KHTML, like Gecko) draw.io/21.3.7 Chrome/112.0.5615.204 Electron/24.5.0 Safari/537.36" etag="HKQ6NjbunesFk9kkc50_" version="21.3.7" type="device">
  <diagram name="Page-1" id="97916047-d0de-89f5-080d-49f4d83e522f">
    <mxGraphModel dx="1509" dy="931" grid="1" gridSize="10" guides="1" tooltips="1" connect="1" arrows="1" fold="1" page="1" pageScale="1.5" pageWidth="1169" pageHeight="827" background="none" math="0" shadow="0">
      <root>
        <mxCell id="0" />
        <mxCell id="1" parent="0" />
        <mxCell id="2" value="backend" style="rounded=1;fillColor=#10739E;strokeColor=none;shadow=1;gradientColor=none;fontStyle=1;fontColor=#FFFFFF;fontSize=14;" parent="1" vertex="1">
          <mxGeometry x="672" y="205.5" width="200" height="60" as="geometry" />
        </mxCell>
        <mxCell id="6" value="endpoints" style="rounded=1;fillColor=#10739E;strokeColor=none;shadow=1;gradientColor=none;fontStyle=1;fontColor=#FFFFFF;fontSize=14;" parent="1" vertex="1">
          <mxGeometry x="330" y="520" width="200" height="60" as="geometry" />
        </mxCell>
        <mxCell id="32" value="" style="edgeStyle=elbowEdgeStyle;elbow=vertical;strokeWidth=4;endArrow=block;endFill=1;fontStyle=1;strokeColor=#23445D;exitX=0.5;exitY=1;exitDx=0;exitDy=0;" parent="1" source="2" target="6" edge="1">
          <mxGeometry x="22" y="165.5" width="100" height="100" as="geometry">
            <mxPoint x="772" y="405.5" as="sourcePoint" />
            <mxPoint x="122" y="165.5" as="targetPoint" />
            <Array as="points">
              <mxPoint x="670" y="430" />
              <mxPoint x="970" y="430" />
            </Array>
          </mxGeometry>
        </mxCell>
        <mxCell id="crBfl8uqIK3-YDZzxL5N-55" value="" style="edgeStyle=elbowEdgeStyle;elbow=vertical;strokeWidth=4;endArrow=block;endFill=1;fontStyle=1;strokeColor=#23445D;exitX=0.5;exitY=1;exitDx=0;exitDy=0;entryX=0.5;entryY=0;entryDx=0;entryDy=0;" edge="1" parent="1" source="2" target="crBfl8uqIK3-YDZzxL5N-65">
          <mxGeometry x="20" y="166" width="100" height="100" as="geometry">
            <mxPoint x="770" y="405.5" as="sourcePoint" />
            <mxPoint x="1720" y="460" as="targetPoint" />
            <Array as="points">
              <mxPoint x="980" y="429" />
            </Array>
          </mxGeometry>
        </mxCell>
        <mxCell id="crBfl8uqIK3-YDZzxL5N-57" value="v1" style="rounded=1;fillColor=#10739E;strokeColor=none;shadow=1;gradientColor=none;fontStyle=1;fontColor=#FFFFFF;fontSize=14;" vertex="1" parent="1">
          <mxGeometry x="330" y="624.5" width="200" height="60" as="geometry" />
        </mxCell>
        <mxCell id="crBfl8uqIK3-YDZzxL5N-58" value="api" style="rounded=1;fillColor=#10739E;strokeColor=none;shadow=1;gradientColor=none;fontStyle=1;fontColor=#FFFFFF;fontSize=14;" vertex="1" parent="1">
          <mxGeometry x="120" y="774.5" width="200" height="60" as="geometry" />
        </mxCell>
        <mxCell id="crBfl8uqIK3-YDZzxL5N-59" value="database" style="rounded=1;fillColor=#10739E;strokeColor=none;shadow=1;gradientColor=none;fontStyle=1;fontColor=#FFFFFF;fontSize=14;" vertex="1" parent="1">
          <mxGeometry x="540" y="774.5" width="200" height="60" as="geometry" />
        </mxCell>
        <mxCell id="crBfl8uqIK3-YDZzxL5N-60" value="" style="edgeStyle=elbowEdgeStyle;elbow=vertical;strokeWidth=4;endArrow=block;endFill=1;fontStyle=1;strokeColor=#23445D;exitX=0.5;exitY=1;exitDx=0;exitDy=0;entryX=0.5;entryY=0;entryDx=0;entryDy=0;" edge="1" parent="1" source="crBfl8uqIK3-YDZzxL5N-57" target="crBfl8uqIK3-YDZzxL5N-59">
          <mxGeometry x="-642" y="784.5" width="100" height="100" as="geometry">
            <mxPoint x="110" y="884.5" as="sourcePoint" />
            <mxPoint x="1058" y="1078.5" as="targetPoint" />
            <Array as="points">
              <mxPoint x="450" y="734.5" />
            </Array>
          </mxGeometry>
        </mxCell>
        <mxCell id="crBfl8uqIK3-YDZzxL5N-61" value="" style="edgeStyle=elbowEdgeStyle;elbow=vertical;strokeWidth=4;endArrow=block;endFill=1;fontStyle=1;strokeColor=#23445D;exitX=0.5;exitY=1;exitDx=0;exitDy=0;entryX=0.5;entryY=0;entryDx=0;entryDy=0;" edge="1" parent="1" source="crBfl8uqIK3-YDZzxL5N-57" target="crBfl8uqIK3-YDZzxL5N-58">
          <mxGeometry x="-632" y="794.5" width="100" height="100" as="geometry">
            <mxPoint x="440" y="694.5" as="sourcePoint" />
            <mxPoint x="650" y="784.5" as="targetPoint" />
            <Array as="points">
              <mxPoint x="390" y="734.5" />
              <mxPoint x="460" y="744.5" />
            </Array>
          </mxGeometry>
        </mxCell>
        <mxCell id="crBfl8uqIK3-YDZzxL5N-62" value="clan" style="rounded=1;fillColor=#10739E;strokeColor=none;shadow=1;gradientColor=none;fontStyle=1;fontColor=#FFFFFF;fontSize=14;" vertex="1" parent="1">
          <mxGeometry y="894.5" width="200" height="60" as="geometry" />
        </mxCell>
        <mxCell id="crBfl8uqIK3-YDZzxL5N-63" value="person" style="rounded=1;fillColor=#10739E;strokeColor=none;shadow=1;gradientColor=none;fontStyle=1;fontColor=#FFFFFF;fontSize=14;" vertex="1" parent="1">
          <mxGeometry x="260" y="894.5" width="200" height="60" as="geometry" />
        </mxCell>
        <mxCell id="crBfl8uqIK3-YDZzxL5N-64" value="" style="edgeStyle=elbowEdgeStyle;elbow=vertical;strokeWidth=4;endArrow=block;endFill=1;fontStyle=1;strokeColor=#23445D;exitX=0.5;exitY=1;exitDx=0;exitDy=0;entryX=0.5;entryY=0;entryDx=0;entryDy=0;" edge="1" parent="1" source="crBfl8uqIK3-YDZzxL5N-58" target="crBfl8uqIK3-YDZzxL5N-62">
          <mxGeometry x="-842" y="974.5" width="100" height="100" as="geometry">
            <mxPoint x="220" y="864.5" as="sourcePoint" />
            <mxPoint x="10" y="954.5" as="targetPoint" />
            <Array as="points">
              <mxPoint x="160" y="864.5" />
              <mxPoint x="250" y="924.5" />
            </Array>
          </mxGeometry>
        </mxCell>
        <mxCell id="crBfl8uqIK3-YDZzxL5N-65" value="routine" style="rounded=1;fillColor=#10739E;strokeColor=none;shadow=1;gradientColor=none;fontStyle=1;fontColor=#FFFFFF;fontSize=14;" vertex="1" parent="1">
          <mxGeometry x="1040" y="520" width="200" height="60" as="geometry" />
        </mxCell>
        <mxCell id="crBfl8uqIK3-YDZzxL5N-66" value="" style="edgeStyle=elbowEdgeStyle;elbow=vertical;strokeWidth=4;endArrow=block;endFill=1;fontStyle=1;strokeColor=#23445D;exitX=0.5;exitY=1;exitDx=0;exitDy=0;entryX=0.5;entryY=0;entryDx=0;entryDy=0;" edge="1" parent="1" source="6" target="crBfl8uqIK3-YDZzxL5N-57">
          <mxGeometry x="-632" y="794.5" width="100" height="100" as="geometry">
            <mxPoint x="440" y="694.5" as="sourcePoint" />
            <mxPoint x="650" y="784.5" as="targetPoint" />
            <Array as="points" />
          </mxGeometry>
        </mxCell>
        <mxCell id="crBfl8uqIK3-YDZzxL5N-67" value="v1" style="rounded=1;fillColor=#10739E;strokeColor=none;shadow=1;gradientColor=none;fontStyle=1;fontColor=#FFFFFF;fontSize=14;" vertex="1" parent="1">
          <mxGeometry x="1040" y="624.5" width="200" height="60" as="geometry" />
        </mxCell>
        <mxCell id="crBfl8uqIK3-YDZzxL5N-68" value="" style="edgeStyle=elbowEdgeStyle;elbow=vertical;strokeWidth=4;endArrow=block;endFill=1;fontStyle=1;strokeColor=#23445D;exitX=0.5;exitY=1;exitDx=0;exitDy=0;entryX=0.5;entryY=0;entryDx=0;entryDy=0;" edge="1" parent="1" source="crBfl8uqIK3-YDZzxL5N-65" target="crBfl8uqIK3-YDZzxL5N-67">
          <mxGeometry x="-622" y="804.5" width="100" height="100" as="geometry">
            <mxPoint x="440" y="590.5" as="sourcePoint" />
            <mxPoint x="440" y="634.5" as="targetPoint" />
            <Array as="points" />
          </mxGeometry>
        </mxCell>
        <mxCell id="crBfl8uqIK3-YDZzxL5N-69" value="api" style="rounded=1;fillColor=#10739E;strokeColor=none;shadow=1;gradientColor=none;fontStyle=1;fontColor=#FFFFFF;fontSize=14;" vertex="1" parent="1">
          <mxGeometry x="870" y="774.5" width="200" height="60" as="geometry" />
        </mxCell>
        <mxCell id="crBfl8uqIK3-YDZzxL5N-71" value="calculations" style="rounded=1;fillColor=#10739E;strokeColor=none;shadow=1;gradientColor=none;fontStyle=1;fontColor=#FFFFFF;fontSize=14;" vertex="1" parent="1">
          <mxGeometry x="1230" y="774.5" width="200" height="60" as="geometry" />
        </mxCell>
        <mxCell id="crBfl8uqIK3-YDZzxL5N-72" value="" style="edgeStyle=elbowEdgeStyle;elbow=vertical;strokeWidth=4;endArrow=block;endFill=1;fontStyle=1;strokeColor=#23445D;exitX=0.5;exitY=1;exitDx=0;exitDy=0;entryX=0.5;entryY=0;entryDx=0;entryDy=0;" edge="1" parent="1" source="crBfl8uqIK3-YDZzxL5N-67" target="crBfl8uqIK3-YDZzxL5N-71">
          <mxGeometry x="-632" y="794.5" width="100" height="100" as="geometry">
            <mxPoint x="440" y="694.5" as="sourcePoint" />
            <mxPoint x="650" y="784.5" as="targetPoint" />
            <Array as="points">
              <mxPoint x="1280" y="734.5" />
              <mxPoint x="1280" y="704.5" />
            </Array>
          </mxGeometry>
        </mxCell>
        <mxCell id="crBfl8uqIK3-YDZzxL5N-73" value="" style="edgeStyle=elbowEdgeStyle;elbow=vertical;strokeWidth=4;endArrow=block;endFill=1;fontStyle=1;strokeColor=#23445D;exitX=0.5;exitY=1;exitDx=0;exitDy=0;entryX=0.5;entryY=0;entryDx=0;entryDy=0;" edge="1" parent="1" source="crBfl8uqIK3-YDZzxL5N-67" target="crBfl8uqIK3-YDZzxL5N-69">
          <mxGeometry x="-622" y="804.5" width="100" height="100" as="geometry">
            <mxPoint x="1150" y="694.5" as="sourcePoint" />
            <mxPoint x="1340" y="784.5" as="targetPoint" />
            <Array as="points">
              <mxPoint x="1110" y="734.5" />
              <mxPoint x="1290" y="714.5" />
            </Array>
          </mxGeometry>
        </mxCell>
        <mxCell id="crBfl8uqIK3-YDZzxL5N-75" value="" style="shape=image;verticalLabelPosition=bottom;labelBackgroundColor=default;verticalAlign=top;aspect=fixed;imageAspect=0;image=https://user-images.githubusercontent.com/727262/40395108-6bcc327a-5e1e-11e8-9f76-3917983b8563.png;" vertex="1" parent="1">
          <mxGeometry x="780" y="260" width="214.92" height="190" as="geometry" />
        </mxCell>
        <mxCell id="crBfl8uqIK3-YDZzxL5N-77" value="&lt;font style=&quot;font-size: 31px;&quot;&gt;File System&lt;/font&gt;" style="text;html=1;align=center;verticalAlign=middle;resizable=0;points=[];autosize=1;strokeColor=none;fillColor=none;" vertex="1" parent="1">
          <mxGeometry x="990" y="330" width="190" height="50" as="geometry" />
        </mxCell>
      </root>
    </mxGraphModel>
  </diagram>
</mxfile>
